<svg xmlns="http://www.w3.org/2000/svg" xmlns:xlink="http://www.w3.org/1999/xlink" width="195.216" height="92.725" viewBox="0 0 195.216 92.725"><defs><clipPath id="a"><path d="M0-13.642H195.216v-92.725H0Z" transform="translate(0 106.367)" fill="none"/></clipPath></defs><g transform="translate(0 106.367)"><path d="M18.659-37.94h157.9V-86.15H18.659Z" transform="translate(0 -4.742)" fill="#bfd730"/><g transform="translate(52.918 -76.652)"><path d="M0,0H-7.571l3.807-8.526Z" transform="translate(7.571 8.526)" fill="#002855"/></g><g transform="translate(0 -106.367)" clip-path="url(#a)"><g transform="translate(101.659 26.62)"><path d="M-2.81-1.414a9.625,9.625,0,0,1-.708,3.653,9.368,9.368,0,0,1-2.066,3.1A9.133,9.133,0,0,1-12.327,8.2,9.164,9.164,0,0,1-19.1,5.338a9.59,9.59,0,0,1-2.095-3.1,9.453,9.453,0,0,1-.717-3.653A9.2,9.2,0,0,1-19.1-8.168,9.385,9.385,0,0,1-15.934-10.3a9.332,9.332,0,0,1,3.606-.727,9.185,9.185,0,0,1,3.606.746A9.6,9.6,0,0,1-5.584-8.168,9.254,9.254,0,0,1-3.518-5.03,9.764,9.764,0,0,1-2.81-1.414" transform="translate(21.912 11.027)" fill="#002855"/></g><g transform="translate(133.874 26.658)"><path d="M-1.379-2.19A3.749,3.749,0,0,1-2.689.938,6.723,6.723,0,0,1-6.841,1.971h-3.912V-17.073h3.644a6.97,6.97,0,0,1,3.9.88A2.961,2.961,0,0,1-1.924-13.6a5.98,5.98,0,0,1-.105,1.081,3.087,3.087,0,0,1-1.444,2.171,7.281,7.281,0,0,1-3.568.68H-7.75v3.51h.66a7.854,7.854,0,0,1,4.362.938A3.438,3.438,0,0,1-1.379-2.19" transform="translate(10.753 17.073)" fill="#002855"/></g><g transform="translate(0 0)"><path d="M-27.947,0H-212.641A5.452,5.452,0,0,0-217.9,5.615V66.057a5.461,5.461,0,0,0,5.261,5.625H-72l14.281,19.436a3.74,3.74,0,0,0,2.994,1.607,3.714,3.714,0,0,0,2.994-1.607l14.28-19.436h9.508a5.461,5.461,0,0,0,5.261-5.625V5.615A5.452,5.452,0,0,0-27.947,0m-149.81,38.509a12.553,12.553,0,0,1-1.961,7.423,9.128,9.128,0,0,1-5.749,3.6,9.58,9.58,0,0,1-2.3.259,9.148,9.148,0,0,1-6.992-2.889l-.248-.325-.287-.325,2.879-2.43.364.325a8.678,8.678,0,0,0,2.287,1.483,6.161,6.161,0,0,0,2.324.4,4.92,4.92,0,0,0,4.161-2.048,9.414,9.414,0,0,0,1.531-5.758V26.7h-11.851V23.224h15.849Zm25.023,10.722-3.883-8.12h-9.546l-3.855,8.139-4.342-.01,12.97-27.4,12.971,27.4Zm10.981-11.248a9.6,9.6,0,0,0,1.291,3.548,9.287,9.287,0,0,0,2.487,2.66,9.5,9.5,0,0,0,5.481,1.76,9.746,9.746,0,0,0,4.869-1.368l1.224-.871,2.344,2.783a12.082,12.082,0,0,1-8.293,3.07,14.763,14.763,0,0,1-3.023-.325,12.838,12.838,0,0,1-7.585-4.572,12.708,12.708,0,0,1-2.87-8.216,14.32,14.32,0,0,1,.325-3.042,12.87,12.87,0,0,1,2.095-4.763,12.905,12.905,0,0,1,8.246-5.5c.487-.1.937-.162,1.368-.21a13.27,13.27,0,0,1,1.444-.077,12.359,12.359,0,0,1,8.4,3.109l-2.42,2.822a8.947,8.947,0,0,0-2.515-1.464,8.638,8.638,0,0,0-1.789-.526,9.58,9.58,0,0,0-1.856-.182,9.022,9.022,0,0,0-6.571,2.764,9.238,9.238,0,0,0-2.793,6.868,9.355,9.355,0,0,0,.144,1.731m47.491,3.367a13.1,13.1,0,0,1-2.879,4.371,13.16,13.16,0,0,1-4.419,2.966,13.4,13.4,0,0,1-5.1,1.023,13.063,13.063,0,0,1-5.1-.995,13.3,13.3,0,0,1-4.342-2.946,13.372,13.372,0,0,1-2.956-4.39,13.374,13.374,0,0,1-1-5.146,13.423,13.423,0,0,1,1-5.128,13.309,13.309,0,0,1,2.918-4.39,12.882,12.882,0,0,1,4.361-2.926,13.351,13.351,0,0,1,5.118-1,13.4,13.4,0,0,1,5.079,1,12.262,12.262,0,0,1,4.361,2.926,13.888,13.888,0,0,1,2.908,4.39,13.263,13.263,0,0,1,1.023,5.128,13.675,13.675,0,0,1-.975,5.117m23.511,1a5.462,5.462,0,0,1-.124.852,6.712,6.712,0,0,1-2.774,4.534,11.029,11.029,0,0,1-6.265,1.5H-88.1V23.224h10.6a7,7,0,0,1,2.917.975,6.372,6.372,0,0,1,3.033,3.98,5.336,5.336,0,0,1,.21.975,8.079,8.079,0,0,1,.077,1.081,6.586,6.586,0,0,1-.727,3.051,6.27,6.27,0,0,1-1.98,2.334,6.847,6.847,0,0,1,2.382,2.641,7.561,7.561,0,0,1,.86,3.539c0,.162,0,.354-.019.554m21.981,1.98A8.658,8.658,0,0,1-50.482,47a7.884,7.884,0,0,1-6.084,2.64,11.558,11.558,0,0,1-2.563-.325,7.828,7.828,0,0,1-4.228-2.487,7.742,7.742,0,0,1-1.894-4.563v-.756h3.922v.574a4.182,4.182,0,0,0,1.483,2.707,4.425,4.425,0,0,0,2.994,1.091,4.338,4.338,0,0,0,.966-.115A4.51,4.51,0,0,0-53.3,44.421a3.582,3.582,0,0,0,.985-2.516,4.317,4.317,0,0,0-.793-2.707,4.752,4.752,0,0,0-2.593-1.559l-1.043-.288-.65-.181-.574-.144-1.368-.391a7.384,7.384,0,0,1-3.854-2.392,5.926,5.926,0,0,1-1.406-3.9,7.807,7.807,0,0,1,1.329-4.228,6.893,6.893,0,0,1,2.63-2.4,7.99,7.99,0,0,1,3.749-.852,5.758,5.758,0,0,1,.8.058c.277.038.564.067.852.086a7.169,7.169,0,0,1,3.892,1.808,7.734,7.734,0,0,1,2.239,3.836l.21,1.224h-4l-.181-.612A3.482,3.482,0,0,0-56.069,26.8a7.288,7.288,0,0,0-.823-.067,3.483,3.483,0,0,0-2.486.937,3.477,3.477,0,0,0-1.186,2.554A2.361,2.361,0,0,0-59.235,32.5a5.721,5.721,0,0,0,1.158.469l1.368.4.431.105.832.248,1.186.364,1.262.431a7.8,7.8,0,0,1,3.511,2.831,7.246,7.246,0,0,1,1.281,4.133,7.639,7.639,0,0,1-.564,2.85" transform="translate(217.902)" fill="#032954"/></g></g></g></svg>