<svg xmlns="http://www.w3.org/2000/svg" width="260.237" height="123.609" viewBox="0 0 260.237 123.609"><g transform="translate(-146 -55.195)"><path d="M18.659-30.125H235.528V-86.15H18.659Z" transform="translate(149.023 164.84)" fill="#00274e"/><g transform="translate(183.254 165.999)"><path d="M0,1.33V-8.2H3.83A2.791,2.791,0,0,1,6.817-5.329,2.8,2.8,0,0,1,3.83-2.458H1.188V1.33ZM5.587-5.329a1.77,1.77,0,0,0-1.9-1.814h-2.5v3.627h2.5a1.77,1.77,0,0,0,1.9-1.813" transform="translate(0 8.202)" fill="#fff"/></g><g transform="translate(199.779 165.999)"><path d="M.769,1.33-1.646-2.458H-3.559V1.33H-4.746V-8.2H-.918a2.787,2.787,0,0,1,3,2.873A2.645,2.645,0,0,1-.4-2.557L2.17,1.33ZM.855-5.329A1.775,1.775,0,0,0-1.06-7.143h-2.5V-3.5h2.5A1.8,1.8,0,0,0,.855-5.329" transform="translate(4.746 8.202)" fill="#fff"/></g><g transform="translate(216.23 165.842)"><path d="M0,.688a4.655,4.655,0,0,1,4.73-4.93A4.668,4.668,0,0,1,9.475.688,4.667,4.667,0,0,1,4.73,5.617,4.654,4.654,0,0,1,0,.688m8.245,0c0-2.229-1.386-3.872-3.515-3.872-2.144,0-3.5,1.643-3.5,3.872S2.586,4.56,4.73,4.56C6.859,4.56,8.245,2.9,8.245.688" transform="translate(0 4.242)" fill="#fff"/></g><g transform="translate(235.682 165.999)"><path d="M0,1.33V-8.2H3.83A2.791,2.791,0,0,1,6.817-5.329,2.8,2.8,0,0,1,3.83-2.458H1.188V1.33ZM5.587-5.329a1.77,1.77,0,0,0-1.9-1.814h-2.5v3.627h2.5a1.77,1.77,0,0,0,1.9-1.813" transform="translate(0 8.202)" fill="#fff"/></g><path d="M0,17.242H260.237V-106.367H0Z" transform="translate(146 161.563)" fill="none"/><path d="M0,1.33V-8.2H6.244v1.058H1.185v3.073H6.143v1.058H1.185V.271H6.244V1.33Z" transform="translate(252.207 174.201)" fill="#fff"/><g transform="translate(268.473 165.999)"><path d="M.769,1.33-1.647-2.458H-3.561V1.33H-4.746V-8.2H-.918a2.786,2.786,0,0,1,3,2.873A2.644,2.644,0,0,1-.4-2.557L2.169,1.33ZM.855-5.329A1.775,1.775,0,0,0-1.06-7.143h-2.5V-3.5h2.5A1.8,1.8,0,0,0,.855-5.329" transform="translate(4.746 8.202)" fill="#fff"/></g><path d="M0,17.242H260.237V-106.367H0Z" transform="translate(146 161.563)" fill="none"/><path d="M.42,1.33V-7.144H-2.594V-8.2H4.635v1.058H1.606V1.33Z" transform="translate(287.104 174.201)" fill="#fff"/><path d="M133.764-11.019h1.186v9.532h-1.186Z" transform="translate(167.684 177.019)" fill="#fff"/><path d="M0,1.33V-8.2H6.244v1.058H1.185v3.073H6.143v1.058H1.185V.271H6.244V1.33Z" transform="translate(313.002 174.201)" fill="#fff"/><g transform="translate(328.695 165.843)"><path d="M0,1.164.716.249A3.922,3.922,0,0,0,3.7,1.621c1.7,0,2.244-.913,2.244-1.657C5.944-2.494.3-1.122.3-4.522.3-6.095,1.7-7.18,3.589-7.18A4.481,4.481,0,0,1,6.96-5.837l-.715.872A3.6,3.6,0,0,0,3.486-6.11c-1.127,0-1.957.615-1.957,1.515,0,2.143,5.644.916,5.644,4.472,0,1.372-.944,2.8-3.515,2.8A4.743,4.743,0,0,1,0,1.164" transform="translate(0 7.18)" fill="#fff"/></g><path d="M0,17.242H260.237V-106.367H0Z" transform="translate(146 161.563)" fill="none"/><path d="M1.227,1.382h-8.8l4.424-9.908Z" transform="translate(224.48 103.849)" fill="#bdd542"/><g transform="translate(281.518 90.682)"><path d="M3.552,1.787a12.831,12.831,0,0,1-.944,4.87A12.488,12.488,0,0,1-.146,10.789,12.175,12.175,0,0,1-9.135,14.6a12.217,12.217,0,0,1-9.028-3.813,12.784,12.784,0,0,1-2.793-4.131,12.6,12.6,0,0,1-.956-4.87,12.271,12.271,0,0,1,3.749-9,12.511,12.511,0,0,1,4.221-2.842,12.44,12.44,0,0,1,4.808-.969,12.244,12.244,0,0,1,4.806.995A12.8,12.8,0,0,1-.146-7.215,12.336,12.336,0,0,1,2.608-3.033a13.016,13.016,0,0,1,.944,4.82" transform="translate(21.912 11.027)" fill="#bdd542"/></g><g transform="translate(324.465 90.733)"><path d="M1.743,2.768A5,5,0,0,1,0,6.937c-1.174.918-3.01,1.377-5.534,1.377h-5.216V-17.073H-5.9A9.292,9.292,0,0,1-.693-15.9a3.948,3.948,0,0,1,1.709,3.456A7.972,7.972,0,0,1,.876-11,4.115,4.115,0,0,1-1.049-8.11,9.706,9.706,0,0,1-5.806-7.2H-6.75v4.679h.88c2.679,0,4.616.422,5.815,1.25a4.583,4.583,0,0,1,1.8,4.042" transform="translate(10.753 17.073)" fill="#bdd542"/></g><g transform="translate(146 55.195)"><path d="M35.322,0H-210.889A7.268,7.268,0,0,0-217.9,7.485V88.059a7.28,7.28,0,0,0,7.013,7.5H-23.409l19.038,25.91a4.985,4.985,0,0,0,3.991,2.142,4.951,4.951,0,0,0,3.992-2.142l19.036-25.91H35.322a7.28,7.28,0,0,0,7.013-7.5V7.485A7.268,7.268,0,0,0,35.322,0M-164.386,51.336q0,6.216-2.614,9.9a12.169,12.169,0,0,1-7.664,4.794,12.77,12.77,0,0,1-3.073.345,12.2,12.2,0,0,1-9.321-3.851l-.331-.433-.382-.433,3.837-3.239.485.433a11.568,11.568,0,0,0,3.048,1.977,8.213,8.213,0,0,0,3.1.536,6.559,6.559,0,0,0,5.547-2.73q2.046-2.716,2.041-7.676V35.588h-15.8V30.96h21.128Zm33.357,14.294L-136.205,54.8h-12.726l-5.139,10.851-5.788-.013,17.29-36.532,17.291,36.532Zm14.639-14.995a12.8,12.8,0,0,0,1.721,4.73,12.38,12.38,0,0,0,3.315,3.546,12.669,12.669,0,0,0,7.306,2.346,12.992,12.992,0,0,0,6.49-1.823l1.632-1.161,3.125,3.711a16.107,16.107,0,0,1-11.055,4.093,19.681,19.681,0,0,1-4.03-.433A17.114,17.114,0,0,1-118,59.547a16.941,16.941,0,0,1-3.826-10.953,19.088,19.088,0,0,1,.433-4.055,17.157,17.157,0,0,1,2.793-6.35A17.2,17.2,0,0,1-107.6,30.857c.65-.127,1.249-.216,1.823-.28a17.688,17.688,0,0,1,1.926-.1,16.475,16.475,0,0,1,11.195,4.144l-3.226,3.762A11.927,11.927,0,0,0-99.24,36.43a11.515,11.515,0,0,0-2.385-.7,12.771,12.771,0,0,0-2.474-.243,12.028,12.028,0,0,0-8.76,3.685,12.315,12.315,0,0,0-3.723,9.156,12.472,12.472,0,0,0,.192,2.308m63.309,4.488A17.468,17.468,0,0,1-56.92,60.95,17.543,17.543,0,0,1-62.81,64.9a17.861,17.861,0,0,1-6.8,1.364,17.414,17.414,0,0,1-6.8-1.326,17.734,17.734,0,0,1-5.788-3.928,17.826,17.826,0,0,1-3.941-5.852,17.828,17.828,0,0,1-1.339-6.86,17.894,17.894,0,0,1,1.339-6.835,17.741,17.741,0,0,1,3.89-5.852,17.173,17.173,0,0,1,5.814-3.9,17.8,17.8,0,0,1,6.823-1.327,17.863,17.863,0,0,1,6.77,1.327,16.346,16.346,0,0,1,5.814,3.9,18.513,18.513,0,0,1,3.877,5.852A17.68,17.68,0,0,1-51.781,48.3a18.23,18.23,0,0,1-1.3,6.822m31.342,1.339A7.284,7.284,0,0,1-21.9,57.6a8.948,8.948,0,0,1-3.7,6.044c-1.951,1.339-4.744,2-8.352,2H-44.87V30.96h14.129a9.325,9.325,0,0,1,3.888,1.3,8.495,8.495,0,0,1,4.043,5.3,7.116,7.116,0,0,1,.28,1.3,10.77,10.77,0,0,1,.1,1.441,8.78,8.78,0,0,1-.969,4.067,8.358,8.358,0,0,1-2.639,3.111A9.127,9.127,0,0,1-22.861,51a10.079,10.079,0,0,1,1.147,4.718c0,.216,0,.472-.026.739M7.563,59.1a11.543,11.543,0,0,1-2.282,3.558,10.51,10.51,0,0,1-8.11,3.519,15.407,15.407,0,0,1-3.417-.433,10.435,10.435,0,0,1-5.636-3.315,10.321,10.321,0,0,1-2.525-6.082V55.339h5.228v.766A5.575,5.575,0,0,0-7.2,59.713a5.9,5.9,0,0,0,3.991,1.454,5.783,5.783,0,0,0,1.288-.153,6.012,6.012,0,0,0,3.443-1.8,4.775,4.775,0,0,0,1.313-3.354,5.754,5.754,0,0,0-1.058-3.608,6.335,6.335,0,0,0-3.456-2.078l-1.39-.383-.867-.242-.766-.192-1.823-.522a9.844,9.844,0,0,1-5.138-3.189,7.9,7.9,0,0,1-1.874-5.2,10.407,10.407,0,0,1,1.772-5.636,9.189,9.189,0,0,1,3.506-3.2,10.651,10.651,0,0,1,5-1.135,7.675,7.675,0,0,1,1.071.077c.37.051.752.089,1.135.115a9.557,9.557,0,0,1,5.189,2.41A10.31,10.31,0,0,1,7.117,38.19l.28,1.632H2.067l-.242-.816a4.641,4.641,0,0,0-3.992-3.277,9.716,9.716,0,0,0-1.1-.089,4.643,4.643,0,0,0-3.314,1.249,4.636,4.636,0,0,0-1.582,3.4,3.147,3.147,0,0,0,1.772,3.034,7.626,7.626,0,0,0,1.543.625l1.823.536.574.141,1.109.331,1.582.485,1.683.574a10.4,10.4,0,0,1,4.68,3.773A9.66,9.66,0,0,1,8.315,55.3a10.183,10.183,0,0,1-.752,3.8" transform="translate(217.902)" fill="#bfd730"/></g><path d="M0,17.242H260.237V-106.367H0Z" transform="translate(146 161.563)" fill="none"/></g></svg>